<svg width="50" height="50" viewBox="0 0 50 50" fill="none" xmlns="http://www.w3.org/2000/svg">
<g clip-path="url(#clip0_7_73)">
<path d="M38.2812 0H11.7188C5.24666 0 0 5.24666 0 11.7188V38.2812C0 44.7533 5.24666 50 11.7188 50H38.2812C44.7533 50 50 44.7533 50 38.2812V11.7188C50 5.24666 44.7533 0 38.2812 0Z" fill="#F4F2ED"/>
<path d="M16.7871 39.0481L21.5781 41.7082H28.8234L35.6012 36.6193L38.6395 28.6391L31.6279 20.1963L29.6414 15.4545L19.9422 15.8014L20.059 18.4615L18.1893 21.9311L15.2678 27.5982L14.6836 32.34L16.7871 39.0481Z" fill="#ECEFF1"/>
<path d="M36.536 22.3937C34.6662 19.7336 33.1471 18.1144 32.3291 14.7605C31.5112 11.4064 32.5629 12.3318 31.8618 9.44023C31.5112 7.93691 30.9268 6.89589 30.3426 6.08632C29.6414 5.27675 28.8235 4.81406 28.3559 4.69843C27.3043 4.12031 24.8502 3.19492 21.812 4.81406C18.6567 6.4332 19.0073 9.90292 19.5916 16.958C19.5916 17.4205 19.4746 17.999 19.2411 18.4615C18.7737 19.5025 17.9555 20.4275 17.2545 21.2373C16.4364 22.3937 15.6184 23.5504 15.0342 24.8225C13.6319 27.4826 12.3463 30.8365 12.6969 32.1088C13.2813 31.9932 20.6434 43.0961 20.6434 43.3273C21.1108 43.2117 23.0973 43.2117 24.8502 43.2117C27.3043 43.0961 28.7065 42.9805 30.6932 43.443C30.6932 43.0961 30.5762 42.749 30.5762 42.4021C30.5762 41.7082 30.6932 41.1299 30.81 40.3203C30.9268 39.742 31.0438 39.1639 31.1606 38.4699C29.992 39.5107 27.8885 40.6674 25.902 41.0143C24.1491 41.3611 21.2276 40.783 19.8252 39.048C19.9422 39.048 20.1758 39.048 20.2928 38.9324C20.6434 38.8168 20.994 38.7012 21.1108 38.4699C21.4614 37.8916 21.2276 37.3133 20.994 36.9664C20.7602 36.6193 19.0073 35.3471 18.1893 34.6533C17.3713 33.9594 16.9039 33.6123 16.4364 33.1498L15.5016 32.2244C15.2678 31.9932 15.151 31.7619 15.0342 31.6461C14.8004 31.068 14.6836 30.374 14.8004 29.4488C14.9172 28.1766 15.3846 27.1355 15.969 25.9791C16.2028 25.5164 16.787 24.5912 16.787 24.5912C16.787 24.5912 14.8004 29.4488 15.8522 30.9523C15.8522 30.9523 15.969 29.4488 16.4364 27.9453C16.787 26.9043 17.3713 25.4008 18.0725 24.5912C18.7737 23.7816 20.5264 20.7746 20.6434 18.924C20.6434 18.1144 20.7602 17.3049 20.7602 16.7268C20.2928 16.2639 28.4729 15.1076 28.9403 16.3797C29.0571 16.8424 30.6932 21.0059 31.628 23.2033C32.0954 24.2443 32.6797 25.1695 33.0303 26.326C33.3809 27.5982 33.6145 29.333 33.6145 31.068C33.6145 31.4148 33.6145 31.9932 33.4977 32.5715C33.7315 32.5715 38.2889 27.7139 32.9135 23.666C32.9135 23.666 36.1854 25.1695 36.3024 28.1766C36.4192 30.6053 35.3674 32.5715 35.1338 32.9184C35.2506 32.9184 37.5877 33.9594 37.7045 33.9594C38.1721 33.9594 39.1069 33.6123 39.1069 33.6123C39.2239 33.2654 39.5743 32.34 39.5743 31.9932C40.3924 29.333 38.4057 25.0539 36.536 22.3937Z" fill="#263238"/>
<path d="M21.6949 14.7605C22.534 14.7605 23.2141 13.7248 23.2141 12.4475C23.2141 11.1699 22.534 10.1344 21.6949 10.1344C20.8561 10.1344 20.1758 11.1699 20.1758 12.4475C20.1758 13.7248 20.8561 14.7605 21.6949 14.7605ZM26.9535 14.9918C28.0508 14.9918 28.9402 13.8008 28.9402 12.3316C28.9402 10.8627 28.0508 9.67168 26.9535 9.67168C25.8564 9.67168 24.967 10.8627 24.967 12.3318C24.967 13.8008 25.8564 14.9918 26.9535 14.9918Z" fill="#ECEFF1"/>
<path d="M22.5437 12.6057C22.4466 11.8453 22.0045 11.2742 21.5562 11.3303C21.1082 11.3863 20.8234 12.0482 20.9207 12.8088C21.0177 13.5691 21.4597 14.1402 21.908 14.0842C22.3562 14.0279 22.6408 13.366 22.5437 12.6057ZM26.8369 14.2978C27.4822 14.2978 28.0054 13.6248 28.0054 12.7943C28.0054 11.9641 27.4822 11.2908 26.8369 11.2908C26.1914 11.2908 25.6681 11.9641 25.6681 12.7943C25.6681 13.6248 26.1914 14.2978 26.8369 14.2978Z" fill="#212121"/>
<path d="M42.3789 38.2385C41.9115 38.0072 41.0933 37.6602 40.3922 36.6193C40.0418 36.041 40.1586 34.4219 39.5742 33.7279C39.2236 33.2654 38.7562 33.4967 38.6394 33.4967C37.5877 33.7279 35.1336 35.3471 33.4976 33.4967C33.2639 33.2654 32.9133 32.9184 32.3291 32.9184C31.7447 32.9184 31.5111 33.1496 31.2773 33.6123C31.0435 34.075 31.0435 34.4219 31.0435 35.5785C31.0435 36.5037 31.0435 37.5445 30.9267 38.3541C30.693 40.3203 30.3426 41.477 30.3426 42.6334C30.3426 43.9057 30.693 44.7152 31.1605 45.0621C31.5111 45.4092 32.0953 45.6404 33.3808 45.6404C34.6662 45.6404 35.4842 45.1779 36.3023 44.3682C36.8865 43.79 37.3539 43.5586 38.99 42.4022C40.2754 41.5926 42.2621 40.5516 42.6125 40.2047C42.8463 39.9734 43.1969 39.8576 43.1969 39.1637C43.1969 38.5856 42.7295 38.3541 42.3789 38.2385ZM18.8904 38.5856C17.7219 36.735 17.6049 36.3881 16.7869 35.2314C16.0857 34.075 14.5666 31.8775 13.6318 31.8775C12.9306 31.8775 12.5801 32.2244 12.1127 32.6871C11.6451 33.1496 11.1777 34.1906 10.3598 34.7689C9.65858 35.3471 7.67206 35.2315 7.20467 35.9254C6.7371 36.6193 7.67206 37.6604 7.67206 39.3951C7.67206 40.0891 7.08768 40.5516 6.97089 41.0143C6.85409 41.5926 6.7371 41.9395 6.97089 42.4022C7.43827 43.0961 8.02264 43.3274 11.9957 44.1369C14.0992 44.5996 16.0857 45.7561 17.3713 45.8719C18.6566 45.9875 20.8769 45.8719 20.8769 42.749C20.9939 40.8986 19.9422 40.4359 18.8904 38.5856ZM21.1107 17.652C20.4096 17.1893 19.8252 16.7266 19.8252 16.0328C19.8252 15.3389 20.2928 15.1074 20.9939 14.5293C21.1107 14.4135 22.3961 13.257 23.6816 13.257C24.967 13.257 26.4861 14.0666 27.0705 14.2981C28.1223 14.5291 29.1738 14.7606 29.057 15.5701C28.9402 16.7266 28.8234 16.958 27.6547 17.5363C26.8367 17.7676 25.3176 19.0398 24.2658 19.0398C23.7984 19.0398 23.0973 19.0398 22.6299 18.924C22.2793 18.8084 21.6949 18.2301 21.1107 17.652Z" fill="#FFC107"/>
<path d="M20.8769 16.7266C21.1107 16.958 21.4613 17.1895 21.8119 17.3049C22.0455 17.4205 22.3961 17.5363 22.3961 17.5363H23.4478C24.0322 17.5363 24.8502 17.3049 25.6681 16.8424C26.4861 16.4953 26.6031 16.2641 27.1873 16.0328C27.7716 15.6857 28.3558 15.3389 28.1222 15.2232C27.8884 15.1074 27.6547 15.2232 26.8367 15.6857C26.1355 16.1484 25.5513 16.3797 24.8502 16.7268C24.4996 16.8424 24.0322 17.0736 23.6816 17.0736H22.6298C22.2793 17.0736 22.0455 16.958 21.6949 16.8424C21.4613 16.7266 21.3443 16.6109 21.2275 16.6109C20.9939 16.4953 20.5263 16.0328 20.2927 15.917C20.2927 15.917 20.059 15.917 20.1757 16.0328L20.8769 16.7266ZM24.3828 14.1822C24.4996 14.4135 24.7334 14.4135 24.8502 14.5291C24.967 14.6449 25.084 14.6449 25.084 14.6449C25.2007 14.5291 25.084 14.2979 24.967 14.2979C24.967 14.0666 24.3828 14.0666 24.3828 14.1822ZM22.5131 14.4135C22.5131 14.5293 22.7466 14.6449 22.7466 14.5293C22.8636 14.4135 22.9804 14.2979 23.0972 14.2979C23.331 14.1822 23.214 14.0666 22.8636 14.0666C22.6298 14.1822 22.6298 14.2979 22.5131 14.4135Z" fill="#634703"/>
<path d="M33.8482 34.8846V35.2315C34.082 35.6941 34.6662 35.8098 35.1336 35.8098C35.8348 35.8098 36.5359 35.3471 36.8865 34.8846C36.8865 34.7689 37.0033 34.6531 37.1203 34.5375C37.3539 34.1906 37.4709 33.9594 37.5877 33.8436C37.5877 33.8436 37.4709 33.7279 37.4709 33.6123C37.3539 33.3811 37.0033 33.1496 36.5359 33.034C36.1853 32.9184 35.6012 32.8027 35.3674 32.8027C34.3156 32.6871 33.7314 33.034 33.3809 33.3811C33.3809 33.3811 33.4977 33.3811 33.4977 33.4967C33.7314 33.7279 33.8482 33.9594 33.8482 34.3063C33.965 34.5375 33.8482 34.6531 33.8482 34.8846Z" fill="#455A64"/>
</g>
<defs>
<clipPath id="clip0_7_73">
<rect width="50" height="50" fill="white"/>
</clipPath>
</defs>
</svg>
