<svg width="50" height="50" viewBox="0 0 50 50" fill="none" xmlns="http://www.w3.org/2000/svg">
<g clip-path="url(#clip0_6_31)">
<path d="M38.2812 0H11.7188C5.24666 0 0 5.24666 0 11.7188V38.2812C0 44.7533 5.24666 50 11.7188 50H38.2812C44.7533 50 50 44.7533 50 38.2812V11.7188C50 5.24666 44.7533 0 38.2812 0Z" fill="#023430"/>
<path d="M33.4322 21.0139C31.3742 11.9355 27.0851 9.51875 25.991 7.81035C25.5398 7.05775 25.1401 6.27542 24.7947 5.46875C24.7369 6.27539 24.6306 6.7832 23.9451 7.39492C22.5687 8.62207 16.723 13.3857 16.231 23.7008C15.7726 33.3184 23.3013 39.2486 24.2959 39.8617C25.0607 40.2381 25.9922 39.8697 26.4467 39.5242C30.0758 37.0336 35.0343 30.3934 33.4361 21.0139" fill="#10AA50"/>
<path d="M25.1065 34.7404C24.917 37.1209 24.7813 38.5041 24.3 39.8645C24.3 39.8645 24.6159 42.1307 24.8377 44.5312H25.6227C25.8099 42.8407 26.0958 41.1626 26.479 39.5055C25.4627 39.0055 25.1456 36.8293 25.1065 34.7404Z" fill="#B8C4C2"/>
<path d="M26.4776 39.5068C25.4506 39.0324 25.1535 36.8104 25.1078 34.7404C25.3617 31.3258 25.4358 27.9002 25.3297 24.4777C25.2758 22.682 25.3551 7.84532 24.8873 5.67305C25.2074 6.40877 25.5761 7.12233 25.991 7.80899C27.0852 9.51875 31.3756 11.9356 33.4323 21.0139C35.0344 30.3773 30.1028 37 26.4776 39.5068Z" fill="#12924F"/>
</g>
<defs>
<clipPath id="clip0_6_31">
<rect width="50" height="50" fill="white"/>
</clipPath>
</defs>
</svg>
