<svg width="50" height="50" viewBox="0 0 50 50" fill="none" xmlns="http://www.w3.org/2000/svg">
<path fill-rule="evenodd" clip-rule="evenodd" d="M25 3.125C29.3265 3.125 33.5558 4.40795 37.1531 6.8116C40.7504 9.21526 43.5542 12.6317 45.2099 16.6288C46.8655 20.6259 47.2987 25.0243 46.4547 29.2676C45.6106 33.5109 43.5272 37.4087 40.468 40.468C37.4087 43.5272 33.5109 45.6106 29.2676 46.4547C25.0243 47.2987 20.6259 46.8655 16.6288 45.2099C12.6317 43.5542 9.21526 40.7504 6.8116 37.1531C4.40795 33.5558 3.125 29.3265 3.125 25C3.125 19.1984 5.42968 13.6344 9.53204 9.53204C13.6344 5.42968 19.1984 3.125 25 3.125Z" fill="#83CD29"/>
<path d="M25 46.875C24.4098 46.8752 23.8299 46.72 23.3188 46.425L17.9688 43.2578C17.1703 42.8109 17.5594 42.6531 17.8234 42.5609C18.6726 42.2986 19.4857 41.9312 20.2438 41.4672C20.3072 41.4378 20.3771 41.4252 20.4468 41.4303C20.5166 41.4355 20.5838 41.4584 20.6422 41.4969L24.7531 43.9391C24.8297 43.9796 24.915 44.0007 25.0016 44.0007C25.0882 44.0007 25.1735 43.9796 25.25 43.9391L41.2813 34.6859C41.3563 34.641 41.4183 34.5773 41.4613 34.5012C41.5043 34.425 41.5268 34.339 41.5266 34.2516V15.7422C41.5266 15.6533 41.5038 15.566 41.4603 15.4885C41.4168 15.4111 41.354 15.3462 41.2781 15.3L25.2469 6.05469C25.1713 6.01211 25.086 5.98974 24.9992 5.98974C24.9125 5.98974 24.8272 6.01211 24.7516 6.05469L8.7297 15.3031C8.65327 15.3483 8.58982 15.4125 8.54547 15.4894C8.50112 15.5663 8.47739 15.6534 8.47657 15.7422V34.2437C8.47679 34.331 8.5002 34.4166 8.54441 34.4919C8.58861 34.5671 8.65202 34.6292 8.72814 34.6719L13.125 37.2094C15.5078 38.4 16.9672 36.9969 16.9672 35.5875V17.3203C16.9672 17.196 17.0166 17.0768 17.1045 16.9889C17.1924 16.9009 17.3116 16.8516 17.4359 16.8516H19.4672C19.5915 16.8516 19.7107 16.9009 19.7987 16.9889C19.8866 17.0768 19.9359 17.196 19.9359 17.3203V35.5891C19.9359 38.7687 18.2047 40.5891 15.1891 40.5891C13.8881 40.6117 12.6075 40.2638 11.4969 39.5859L7.28282 37.1687C6.77124 36.8708 6.34676 36.4439 6.05174 35.9307C5.75673 35.4174 5.60151 34.8358 5.60157 34.2437V15.7422C5.60005 15.1493 5.75462 14.5664 6.04974 14.0521C6.34485 13.5379 6.77013 13.1103 7.28282 12.8125L23.3156 3.55625C23.8321 3.2737 24.4113 3.12561 25 3.12561C25.5887 3.12561 26.1679 3.2737 26.6844 3.55625L42.7156 12.8125C43.2272 13.1098 43.6517 13.5361 43.947 14.0488C44.2423 14.5615 44.398 15.1427 44.3984 15.7344V34.2437C44.3976 34.8357 44.2418 35.4172 43.9466 35.9303C43.6513 36.4435 43.227 36.8704 42.7156 37.1687L26.6844 46.425C26.1723 46.7205 25.5913 46.8757 25 46.875ZM30.45 33.9734C35.5297 33.9734 38.4422 31.9734 38.4422 28.4797C38.4422 25.0172 36.0984 24.0937 31.175 23.4437C26.1969 22.7844 25.6906 22.4453 25.6906 21.2797C25.6906 20.3172 26.1188 19.0328 29.8063 19.0328C33.1 19.0328 34.3141 19.7422 34.8063 21.9625C34.83 22.0645 34.8872 22.1556 34.9688 22.2213C35.0503 22.287 35.1515 22.3235 35.2563 22.325H37.3438C37.4078 22.3241 37.471 22.3101 37.5294 22.2839C37.5878 22.2576 37.6403 22.2197 37.6834 22.1724C37.7266 22.1251 37.7597 22.0695 37.7805 22.0089C37.8014 21.9484 37.8096 21.8842 37.8047 21.8203C37.4828 17.9953 34.9422 16.2125 29.8047 16.2125C25.2344 16.2125 22.5078 18.1422 22.5078 21.3766C22.5078 24.8859 25.2203 25.8547 29.6078 26.2891C34.8563 26.8031 35.2641 27.5703 35.2641 28.6031C35.2641 30.3953 33.8266 31.1594 30.4484 31.1594C26.2063 31.1594 25.2719 30.0937 24.9594 27.9844C24.9413 27.8751 24.8851 27.7757 24.8007 27.7039C24.7163 27.6321 24.6092 27.5925 24.4984 27.5922H22.4234C22.2991 27.5922 22.1799 27.6416 22.092 27.7295C22.0041 27.8174 21.9547 27.9366 21.9547 28.0609C21.9594 30.7531 23.4297 33.9734 30.4453 33.9734H30.45Z" fill="white"/>
</svg>
