<svg width="50" height="61" viewBox="0 0 50 61" fill="none" xmlns="http://www.w3.org/2000/svg">
<g clip-path="url(#clip0_8_13)">
<path d="M49.6705 45.9998L28.9063 1.9041C28.6482 1.36153 28.2483 0.8988 27.7489 0.564885C27.2494 0.23097 26.669 0.0382856 26.069 0.00722222C25.4678 -0.0330623 24.8672 0.0922473 24.3323 0.369523C23.7974 0.646799 23.3488 1.06543 23.0352 1.57988L0.514281 38.0562C0.17184 38.607 -0.00649557 39.244 0.000180817 39.8925C0.00685721 40.541 0.198269 41.1742 0.551977 41.7178L11.5625 58.7687C11.9791 59.4088 12.5914 59.8971 13.3081 60.1607C14.0249 60.4243 14.8077 60.4491 15.5397 60.2314L47.4926 50.7799C47.9737 50.6392 48.419 50.3969 48.7984 50.0693C49.1779 49.7417 49.4825 49.3365 49.6918 48.8811C49.8982 48.428 50.0033 47.9353 49.9999 47.4375C49.9965 46.9396 49.8846 46.4485 49.6721 45.9982L49.6705 45.9998ZM45.0217 47.891L17.9078 55.9086C17.0807 56.1547 16.2867 55.4377 16.4588 54.6029L26.1459 8.21933C26.327 7.35156 27.5254 7.21406 27.9043 8.01718L45.8367 46.0978C45.916 46.2675 45.9576 46.4524 45.9585 46.6397C45.9594 46.8269 45.9197 47.0122 45.8421 47.1826C45.7645 47.3531 45.6508 47.5047 45.5089 47.6269C45.3671 47.7492 45.2004 47.8392 45.0203 47.8908L45.0217 47.891Z" fill="black"/>
</g>
<defs>
<clipPath id="clip0_8_13">
<rect width="50" height="60.5469" fill="white"/>
</clipPath>
</defs>
</svg>
