<svg width="51" height="50" viewBox="0 0 51 50" fill="none" xmlns="http://www.w3.org/2000/svg">
<g clip-path="url(#clip0_6_8)">
<path d="M24.8854 0.014061C12.1732 0.014061 12.9669 5.52681 12.9669 5.52681L12.9811 11.2382H25.112V12.9529H8.16283C8.16283 12.9529 0.0283203 12.0303 0.0283203 24.8568C0.0283203 37.6837 7.12832 37.2288 7.12832 37.2288H11.3656V31.2766C11.3656 31.2766 11.1371 24.1766 18.3522 24.1766H30.384C30.384 24.1766 37.1438 24.2858 37.1438 17.6435V6.66073C37.1438 6.66073 38.1705 0.014061 24.8854 0.014061ZM18.1964 3.85485C18.483 3.85459 18.7669 3.91086 19.0318 4.02044C19.2967 4.13002 19.5374 4.29076 19.7401 4.49347C19.9428 4.69617 20.1035 4.93685 20.2131 5.20174C20.3227 5.46663 20.379 5.75054 20.3787 6.0372C20.379 6.32386 20.3227 6.60776 20.2131 6.87265C20.1035 7.13755 19.9428 7.37823 19.7401 7.58093C19.5374 7.78363 19.2967 7.94437 19.0318 8.05396C18.7669 8.16354 18.483 8.21981 18.1964 8.21955C17.9097 8.21981 17.6258 8.16354 17.3609 8.05396C17.096 7.94437 16.8553 7.78363 16.6526 7.58093C16.4499 7.37823 16.2892 7.13755 16.1796 6.87265C16.07 6.60776 16.0137 6.32386 16.014 6.0372C16.0137 5.75054 16.07 5.46663 16.1796 5.20174C16.2892 4.93685 16.4499 4.69617 16.6526 4.49347C16.8553 4.29076 17.096 4.13002 17.3609 4.02044C17.6258 3.91086 17.9097 3.85459 18.1964 3.85485Z" fill="url(#paint0_linear_6_8)"/>
<path d="M25.2465 49.8286C37.9587 49.8286 37.1649 44.3159 37.1649 44.3159L37.1508 38.6047H25.0196V36.89H41.9689C41.9689 36.89 50.1034 37.8125 50.1034 24.9857C50.1034 12.159 43.0034 12.6139 43.0034 12.6139H38.7661V18.5659C38.7661 18.5659 38.9945 25.6659 31.7794 25.6659H19.7477C19.7477 25.6659 12.9879 25.5567 12.9879 32.1992V43.1822C12.9879 43.1822 11.9614 49.8286 25.2463 49.8286H25.2465ZM31.9355 45.9882C31.6489 45.9885 31.365 45.9322 31.1001 45.8226C30.8352 45.7131 30.5945 45.5523 30.3918 45.3496C30.1891 45.1469 30.0283 44.9062 29.9188 44.6413C29.8092 44.3764 29.7529 44.0925 29.7532 43.8059C29.7529 43.5192 29.8091 43.2353 29.9187 42.9704C30.0283 42.7054 30.189 42.4647 30.3917 42.262C30.5944 42.0593 30.8351 41.8985 31.1 41.7889C31.3649 41.6794 31.6488 41.6231 31.9355 41.6233C32.2222 41.6231 32.5061 41.6793 32.771 41.7889C33.0359 41.8985 33.2765 42.0592 33.4793 42.2619C33.682 42.4647 33.8427 42.7053 33.9523 42.9702C34.0619 43.2351 34.1181 43.519 34.1179 43.8057C34.1181 44.0923 34.0619 44.3762 33.9523 44.6411C33.8427 44.906 33.682 45.1467 33.4793 45.3494C33.2765 45.5521 33.0359 45.7129 32.771 45.8224C32.5061 45.932 32.2222 45.9885 31.9355 45.9882Z" fill="url(#paint1_linear_6_8)"/>
</g>
<defs>
<linearGradient id="paint0_linear_6_8" x1="481.246" y1="448.066" x2="2962.81" y2="2904.87" gradientUnits="userSpaceOnUse">
<stop stop-color="#387EB8"/>
<stop offset="1" stop-color="#366994"/>
</linearGradient>
<linearGradient id="paint1_linear_6_8" x1="723.266" y1="778.494" x2="3388.18" y2="3297.72" gradientUnits="userSpaceOnUse">
<stop stop-color="#FFE052"/>
<stop offset="1" stop-color="#FFC331"/>
</linearGradient>
<clipPath id="clip0_6_8">
<rect width="50.1961" height="50" fill="white"/>
</clipPath>
</defs>
</svg>
