<svg width="50" height="50" viewBox="0 0 50 50" fill="none" xmlns="http://www.w3.org/2000/svg">
<path d="M42.1875 7.8125H7.8125C6.9837 7.8125 6.18884 8.14174 5.60279 8.72779C5.01674 9.31384 4.6875 10.1087 4.6875 10.9375V39.0625C4.6875 39.8913 5.01674 40.6862 5.60279 41.2722C6.18884 41.8583 6.9837 42.1875 7.8125 42.1875H42.1875C43.0163 42.1875 43.8112 41.8583 44.3972 41.2722C44.9833 40.6862 45.3125 39.8913 45.3125 39.0625V10.9375C45.3125 10.1087 44.9833 9.31384 44.3972 8.72779C43.8112 8.14174 43.0163 7.8125 42.1875 7.8125ZM15.168 33.918C14.8748 34.2112 14.4771 34.3759 14.0625 34.3759C13.6479 34.3759 13.2502 34.2112 12.957 33.918C12.6638 33.6248 12.4991 33.2271 12.4991 32.8125C12.4991 32.3979 12.6638 32.0002 12.957 31.707L19.666 25L12.957 18.293C12.6638 17.9998 12.4991 17.6021 12.4991 17.1875C12.4991 16.7729 12.6638 16.3752 12.957 16.082C13.2502 15.7888 13.6479 15.6241 14.0625 15.6241C14.4771 15.6241 14.8748 15.7888 15.168 16.082L22.9805 23.8945C23.1257 24.0396 23.241 24.212 23.3196 24.4017C23.3983 24.5913 23.4387 24.7947 23.4387 25C23.4387 25.2053 23.3983 25.4087 23.3196 25.5983C23.241 25.788 23.1257 25.9604 22.9805 26.1055L15.168 33.918ZM37.5 34.375H25C24.5856 34.375 24.1882 34.2104 23.8951 33.9174C23.6021 33.6243 23.4375 33.2269 23.4375 32.8125C23.4375 32.3981 23.6021 32.0007 23.8951 31.7076C24.1882 31.4146 24.5856 31.25 25 31.25H37.5C37.9144 31.25 38.3118 31.4146 38.6049 31.7076C38.8979 32.0007 39.0625 32.3981 39.0625 32.8125C39.0625 33.2269 38.8979 33.6243 38.6049 33.9174C38.3118 34.2104 37.9144 34.375 37.5 34.375Z" fill="black"/>
</svg>
