<svg width="50" height="50" viewBox="0 0 50 50" fill="none" xmlns="http://www.w3.org/2000/svg">
<path d="M44.825 3.125H5.175C4.04282 3.125 3.125 4.04282 3.125 5.175V44.825C3.125 45.9572 4.04282 46.875 5.175 46.875H44.825C45.9572 46.875 46.875 45.9572 46.875 44.825V5.175C46.875 4.04282 45.9572 3.125 44.825 3.125Z" fill="#3178C6"/>
<path fill-rule="evenodd" clip-rule="evenodd" d="M28.5078 37.1234V41.9172C29.3788 42.3471 30.3071 42.6497 31.2641 42.8156C32.37 43.0198 33.4926 43.1202 34.6172 43.1156C35.7133 43.1208 36.8068 43.0103 37.8797 42.7859C38.843 42.5913 39.762 42.2205 40.5906 41.6922C41.3599 41.1956 41.994 40.5159 42.436 39.7141C43.2275 38.0536 43.332 36.1479 42.7266 34.4109C42.4711 33.7614 42.0904 33.1684 41.6063 32.6656C41.0865 32.131 40.4962 31.67 39.8516 31.2953C39.1095 30.8607 38.3384 30.4775 37.5438 30.1484C36.9188 29.8891 36.3563 29.637 35.8563 29.3922C35.4122 29.1796 34.9872 28.9292 34.586 28.6438C34.2717 28.4235 33.9988 28.1495 33.7797 27.8344C33.5904 27.5483 33.4919 27.2117 33.4969 26.8688C33.4927 26.5531 33.5807 26.243 33.75 25.9766C33.9339 25.6977 34.1793 25.4647 34.4672 25.2953C34.8192 25.0881 35.2022 24.9388 35.6016 24.8531C36.0919 24.7442 36.5931 24.6918 37.0953 24.6969C37.5177 24.6983 37.9395 24.7286 38.3578 24.7875C38.8095 24.8486 39.2564 24.941 39.6953 25.0641C40.1417 25.1878 40.5784 25.3445 41.0016 25.5328C41.4123 25.7159 41.8051 25.9366 42.175 26.1922V21.7188C41.4049 21.4274 40.6062 21.2179 39.7922 21.0938C38.8092 20.9507 37.8167 20.8833 36.8235 20.8922C35.7377 20.8863 34.6551 21.0096 33.5985 21.2594C32.6434 21.4776 31.7352 21.8655 30.9172 22.4047C30.1573 22.9109 29.5299 23.5919 29.0875 24.3906C28.6187 25.2776 28.3868 26.2706 28.4141 27.2734C28.3795 28.5997 28.8163 29.8952 29.6469 30.9297C30.6659 32.0767 31.9509 32.9561 33.3891 33.4906C34.0453 33.7615 34.6573 34.0266 35.225 34.2859C35.7372 34.5139 36.2296 34.7841 36.6969 35.0938C37.0738 35.339 37.4049 35.6483 37.675 36.0078C37.9125 36.3339 38.0386 36.7279 38.0344 37.1313C38.0365 37.4335 37.9589 37.731 37.8094 37.9938C37.6432 38.2761 37.4097 38.5128 37.1297 38.6828C36.7793 38.8964 36.396 39.0506 35.9953 39.1391C35.4734 39.2558 34.9395 39.3108 34.4047 39.3031C33.3552 39.3012 32.314 39.1161 31.3281 38.7563C30.2982 38.3846 29.343 37.8316 28.5078 37.1234ZM20.4547 25.1891H26.7047V21.2406H9.27814V25.1891H15.5V42.7734H20.4547V25.1891Z" fill="white"/>
</svg>
